<?xml version="1.0" encoding="UTF-8"?>
<svg width="700pt" height="700pt" version="1.1" viewBox="0 0 700 700" xmlns="http://www.w3.org/2000/svg">
 <path style="fill:#FFFFFF;" d="m486.64 266.21c-0.09375-2.9648-0.14062-3.8516-0.30469-7.8164l-0.23438-4.5508c0.023438 0.46484-0.23437-3.7109-0.1875-3.2656l-0.09375-1.3984-28.328 1.8672v0.09375c0.11719 1.6562 0.21094 3.1953 0.30469 4.875 0-0.023437 0.58203 17.078 0.58203 17.059l0.023438 0.58203-0.023438-0.23438 0.023438 0.67578v0.48828-0.23438 0.69922-0.21094 0.69922-0.23437l0.023437 0.81641-0.023437-0.23438 0.023437 0.93359v-0.23437 1.0508-0.23438 1.3984l0.003907-0.19922v1.3984c0 21.582-1.5391 44.125-4.9922 66.5 10.336-2.918 20.465-6.3477 30.055-10.359 2.2617-18.668 3.3359-37.426 3.3359-56.117-0.023437-2.9648-0.046875-5.9258-0.09375-8.8906zm-290.97 122.85-79.004-22.934 15.352-16.59c-19.621-18.434-34.02-41.957-34.02-69.535 0.14062-21.375 8.168-39.457 21.281-55.977 19.367-23.59 46.992-41.02 77.91-53.504-2.707 11.293-4.9492 22.703-6.7461 34.207-13.484 6.8125-25.875 14.84-36.633 24.219-13.137 11.668-24.148 26.086-26.809 43.445-1.7734 11.668 0.62891 22.75 6.043 33.062 4.5977 8.7266 11.152 16.59 18.246 23.215l15.328-16.59zm98.328-242.46c19.602-2.4023 38.641-3.4531 56-3.4531 41.184 0 82.879 5.1797 122.41 16.848 54.133 15.984 129.2 54.414 129.59 120-0.14062 21.352-8.1445 39.434-21.258 55.953-50.191 61.18-155.98 80.898-230.74 80.898-20.766 0-42.512-1.2617-62.93-4.2461l3.8516-28.117c19.133 2.8008 39.645 3.9648 59.102 3.9648 63.234 0 146.95-14.488 196.19-57.398 15.027-13.348 27.23-30.262 27.418-51.055-0.30469-33.949-32.898-58.707-60.059-73.125-48.676-25.504-109.13-35.352-163.57-35.352-20.625 0-43.445 1.5391-66.547 5.1094 2.9648-10.312 6.4648-20.371 10.547-30.031zm131.23 292.86c11.34-1.7734 22.75-3.9414 34.043-6.6016-19.832 48.137-55.395 98.816-109.27 99.145-21.375-0.14062-39.457-8.1445-55.977-21.258-61.18-50.215-80.875-155.98-80.875-230.75 0-41.16 5.1797-82.879 16.848-122.41 15.984-54.133 54.414-129.2 120-129.59 33.926 0 61.297 21.605 80.875 47.555l18.152-13.465 14.234 80.988-73.363-37.168 18.152-13.465c-13.555-18.363-34.18-36.047-58.051-36.047-33.949 0.30469-58.707 32.922-73.125 60.082-25.504 48.625-35.352 109.08-35.352 163.52 0 63.234 14.488 146.95 57.422 196.19 13.348 15.027 30.238 27.23 51.055 27.418 33.949-0.30469 58.707-32.898 73.125-60.059z" fill-rule="evenodd"/>
</svg>