<?xml version="1.0" encoding="utf-8"?>
<!-- Generator: Adobe Illustrator 25.4.8, SVG Export Plug-In . SVG Version: 6.00 Build 0)  -->
<svg version="1.1" id="Layer_1" xmlns="http://www.w3.org/2000/svg" xmlns:xlink="http://www.w3.org/1999/xlink" x="0px" y="0px"
	 viewBox="0 0 250 390" style="enable-background:new 0 0 250 390;" xml:space="preserve">
<style type="text/css">
	.st0{fill:#eedec9;}
	.st1{fill:#8982ce;}
	.st2t{fill:#cdadce;}
	.st2b{fill:#9975a4;}
	.st3{fill:#403fc6;}
	.st4{fill:#fff;}
</style>
<g transform="translate(128 0)">
	<path class="st0" d="M-2.8,381.4c-3.3,0-5.8-0.5-8.4-2.9l-89.9-83.1c-2.7-2.5-5.2-5.8-5.2-9.5V103.8c0-3.7,1.6-7.2,4.3-9.7l90.1-82
		C-9.3,9.8-6,8.6-2.8,8.6c3.3,0,6.5,1.2,9.1,3.5l90.1,82c2.7,2.5,4.3,6,4.3,9.7v182.1c0,3.7-2.4,6.9-5.1,9.4L5.6,378.5
		C3,380.9,0.5,381.4-2.8,381.4z"/>
	<g>
		<path class="st1" d="M-2.8,313.9v67.5c3.3,0,6.6-1.2,9.2-3.6l90.1-83.3c2.7-2.5,4.2-6,4.2-9.6l-53.6-17.2L-2.8,313.9z"/>
		<path class="st1" d="M-106.3,102.8c0-3.7,2-6.8,4.7-9.3L-11.8,11C-9.3,8.7-6,7.5-2.8,7.5v67.1l-49.9,45.4L-106.3,102.8z"/>
	</g>
	<path class="st2b" d="M-2.8,313.9v67.5c-3.3,0-6.6-1.2-9.2-3.6l-90.1-83.3c-2.7-2.5-4.2-6-4.2-9.6l53.6-17.2L-2.8,313.9z"/>
	<g>
		<polygon class="st3" points="-52.7,267.5 -52.7,119.9 -106.3,102.8 -106.3,284.9 		"/>
		<polygon class="st3" points="47.2,120.1 47.2,267.7 100.8,284.9 100.8,102.8 		"/>
	</g>
	<path class="st2t" d="M100.7,103.2c0-3.7-1.6-7.2-4.3-9.7L6.1,11.3C3.5,9,0.2,7.8-3,7.8v67.3l50,45.5L100.7,103.2z"/>
	<path class="st4" fill-opacity="0.1" d="M-73.1,285.4V103c0-3.7,1.6-7.2,4.3-9.7L-3,33.4V7.5c-3.3,0-6.5,1.2-8.9,3.7l-89.9,82.5
		c-3.1,2.7-3.8,4.6-4.6,8.7l0.3,183c0,3.7,1.8,6.9,4.5,9.4l90.2,83.3c2.6,2.4,5.5,3.3,8.8,3.3L-3,356l-65.9-60.9
		C-71.6,292.6-73.1,289.1-73.1,285.4z"/>
</g>
</svg>
