<?xml version="1.0" encoding="utf-8"?>
<!-- Generator: Adobe Illustrator 25.4.8, SVG Export Plug-In . SVG Version: 6.00 Build 0)  -->
<svg version="1.1" id="Layer_1" xmlns="http://www.w3.org/2000/svg" xmlns:xlink="http://www.w3.org/1999/xlink" x="0px" y="0px"
	 viewBox="0 0 250 390" style="enable-background:new 0 0 250 390;" xml:space="preserve">
<style type="text/css">
	.st0{fill:#222;}
	.st1{fill:#333;}
	.st2{fill:#555;}
	.st3{fill:#444;}
</style>
<g transform="translate(128 0)">
	<path class="st0" d="M-2.8,381.4c-3.3,0-5.8-0.5-8.4-2.9l-89.9-83.1c-2.7-2.5-5.2-5.8-5.2-9.5V103.8c0-3.7,1.6-7.2,4.3-9.7l90.1-82
		C-9.3,9.8-6,8.6-2.8,8.6c3.3,0,6.5,1.2,9.1,3.5l90.1,82c2.7,2.5,4.3,6,4.3,9.7v182.1c0,3.7-2.4,6.9-5.1,9.4L5.6,378.5
		C3,380.9,0.5,381.4-2.8,381.4z"/>
	<g>
		<path class="st1" d="M-2.8,313.9v67.5c3.3,0,6.6-1.2,9.2-3.6l90.1-83.3c2.7-2.5,4.2-6,4.2-9.6l-53.6-17.2L-2.8,313.9z"/>
		<path class="st1" d="M-106.3,102.8c0-3.7,2-6.8,4.7-9.3L-11.8,11C-9.3,8.7-6,7.5-2.8,7.5v67.1l-49.9,45.4L-106.3,102.8z"/>
	</g>
	<path class="st2" d="M-2.8,313.9v67.5c-3.3,0-6.6-1.2-9.2-3.6l-90.1-83.3c-2.7-2.5-4.2-6-4.2-9.6l53.6-17.2L-2.8,313.9z"/>
	<g>
		<polygon class="st3" points="-52.7,267.5 -52.7,119.9 -106.3,102.8 -106.3,284.9 		"/>
		<polygon class="st3" points="47.2,120.1 47.2,267.7 100.8,284.9 100.8,102.8 		"/>
	</g>
	<path class="st2" d="M100.7,103.2c0-3.7-1.6-7.2-4.3-9.7L6.1,11.3C3.5,9,0.2,7.8-3,7.8v67.3l50,45.5L100.7,103.2z"/>
</g>
</svg>
