<?xml version="1.0" encoding="iso-8859-1"?>
<!-- Generator: Adobe Illustrator 19.0.0, SVG Export Plug-In . SVG Version: 6.00 Build 0)  -->
<svg version="1.1" id="Capa_1" xmlns="http://www.w3.org/2000/svg" xmlns:xlink="http://www.w3.org/1999/xlink" x="0px" y="0px"
	 viewBox="0 0 58 58" style="enable-background:new 0 0 58 58;" xml:space="preserve">
<path style="fill:#c6538c;" d="M43.912,58H14.088C12.935,58,12,57.065,12,55.912V2.088C12,0.935,12.935,0,14.088,0h29.823
	C45.065,0,46,0.935,46,2.088v53.823C46,57.065,45.065,58,43.912,58z"/>
<rect x="12" y="6" style="fill:#38454F;" width="34" height="43"/>
<line style="fill:none;stroke:#839CAA;stroke-width:2;stroke-linecap:round;stroke-miterlimit:10;" x1="15" y1="13" x2="19" y2="9"/>
<line style="fill:none;stroke:#839CAA;stroke-width:2;stroke-linecap:round;stroke-miterlimit:10;" x1="15" y1="18" x2="17" y2="16"/>
<line style="fill:none;stroke:#839CAA;stroke-width:2;stroke-linecap:round;stroke-miterlimit:10;" x1="19" y1="14" x2="19" y2="14"/>
<line style="fill:none;stroke:#839CAA;stroke-width:2;stroke-linecap:round;stroke-miterlimit:10;" x1="21" y1="12" x2="24" y2="9"/>
<line style="fill:none;stroke:#839CAA;stroke-width:2;stroke-linecap:round;stroke-miterlimit:10;" x1="15" y1="23" x2="24" y2="14"/>
<line style="fill:none;stroke:#839CAA;stroke-width:2;stroke-linecap:round;stroke-miterlimit:10;" x1="26" y1="12" x2="26" y2="12"/>
<line style="fill:none;stroke:#839CAA;stroke-width:2;stroke-linecap:round;stroke-miterlimit:10;" x1="28" y1="10" x2="29" y2="9"/>
<path style="fill:#E7ECED;" d="M32,4h-6c-0.553,0-1-0.447-1-1s0.447-1,1-1h6c0.553,0,1,0.447,1,1S32.553,4,32,4z"/>
<path style="fill:#E7ECED;" d="M31.5,55h-5c-0.825,0-1.5-0.675-1.5-1.5l0,0c0-0.825,0.675-1.5,1.5-1.5h5c0.825,0,1.5,0.675,1.5,1.5
	l0,0C33,54.325,32.325,55,31.5,55z"/>
</svg>
