<?xml version="1.0" encoding="UTF-8" standalone="no"?>
<!-- Created with Inkscape (http://www.inkscape.org/) -->

<svg
   xmlns:dc="http://purl.org/dc/elements/1.1/"
   xmlns:cc="http://creativecommons.org/ns#"
   xmlns:rdf="http://www.w3.org/1999/02/22-rdf-syntax-ns#"
   xmlns:svg="http://www.w3.org/2000/svg"
   xmlns="http://www.w3.org/2000/svg"
   xmlns:xlink="http://www.w3.org/1999/xlink"
   xmlns:sodipodi="http://sodipodi.sourceforge.net/DTD/sodipodi-0.dtd"
   xmlns:inkscape="http://www.inkscape.org/namespaces/inkscape"
   sodipodi:docname="2_Silueta_REMIX_DAMA_by DG-RA.svg"
   inkscape:version="0.92.1 r15371"
   version="1.1"
   id="svg2"
   height="500"
   width="500">
  <g
     inkscape:label="Capa 1"
     inkscape:groupmode="layer"
     id="layer1"
     transform="translate(0,-552.36275)"
     style="display:inline">
    <g
       id="g179"
       transform="matrix(1.7650511,0,0,1.7650511,-372.73309,-877.97832)">
      <path
         inkscape:connector-curvature="0"
         style="fill:#20073a;fill-opacity:1;fill-rule:nonzero;stroke:none"
         d="m 293.85626,1093.406 c -1.27999,-0.24 -1.83999,-0.96 -2.15999,-3.04 -0.55999,-2.64 -0.08,-11.7599 0.56,-12.5599 0.24,-0.24 1.27999,-1.12 2.31998,-1.76 1.19999,-0.88 1.83999,-1.52 1.83999,-1.92 0,-0.4 -0.08,-0.56 -0.32,-0.4 -0.24,0.08 -0.32,0 -0.24,-0.24 0.08,-0.24 -0.48,-1.28 -1.19999,-2.3199 -3.11998,-4.16 -2.55998,-6.72 2.39998,-12.24 3.83997,-4.2399 15.11989,-17.9198 17.43987,-21.1998 2.39999,-3.36 2.39999,-3.84 1.35999,-10.4799 -0.87999,-5.76 -0.71999,-6.56 1.51999,-8.16 3.19998,-2.2399 6.31995,-5.4399 7.19995,-7.5199 1.67999,-3.52 3.19997,-8.5599 4.95996,-16.15989 2.31998,-9.59993 2.31998,-9.59993 3.03998,-14.55989 2.07998,-13.3599 2.71998,-23.19983 2.71998,-41.83969 0,-14.1599 0,-14.63989 -0.64,-15.03989 -0.31999,-0.32 -1.11999,-0.48 -1.67998,-0.56 -1.59999,0 -10.47993,-1.51999 -13.19991,-2.23998 -4.47996,-1.19999 -8.87993,-3.11998 -10.23992,-4.39997 -1.67999,-1.59999 -1.75999,-3.11998 -0.24,-4.39997 1.27999,-1.03999 4.47997,-2.63998 7.67994,-3.83997 2.71998,-1.03999 3.03998,-1.51999 1.99999,-3.19997 -0.48,-0.64 -0.48,-0.8 0,-1.51999 1.11999,-1.67999 4.23997,-3.03998 7.75994,-3.35998 l 2.15999,-0.24 0.08,-3.91997 0.16,-3.91997 -1.35999,-0.47999 c -1.91999,-0.8 -2.87998,-2.07999 -2.87998,-3.91998 0,-1.99998 0.95999,-3.43997 2.63998,-4.07997 l 1.27999,-0.55999 -0.16,-5.43996 c -0.48,-13.4399 -2.39998,-21.27984 -7.11995,-29.59978 -1.83998,-3.35998 -2.79998,-4.63997 -4.07997,-5.43996 -1.03999,-0.71999 -1.19999,-0.95999 -1.19999,-1.91999 0,-1.51998 1.03999,-3.67997 1.99999,-4.31996 0.39999,-0.24 1.43999,-0.64 2.23998,-0.88 0.87999,-0.24 1.51999,-0.55999 1.51999,-0.63999 0,-0.48 2.95998,0.71999 5.51996,2.39998 1.75998,1.03999 2.31998,0.95999 3.91997,-0.87999 1.59999,-1.91999 2.71998,-2.47999 4.79996,-2.47999 1.43999,0.08 4.31997,1.12 5.91996,2.23999 l 0.95999,0.71999 0.32,-0.71999 c 0.16,-0.48 0.48,-3.51998 0.79999,-6.79995 0.56,-6.79995 0.72,-7.43995 3.11998,-9.03993 2.95998,-1.99999 7.75994,-2.15999 10.95992,-0.32 2.79998,1.67998 3.19998,2.63998 3.67997,9.83992 0.24,3.59998 0.56,5.91996 0.88,6.23996 0.39999,0.55999 0.39999,0.55999 1.27999,0 3.11997,-1.91999 5.75995,-2.55998 7.91994,-1.83999 0.71999,0.24 1.67998,1.03999 2.47998,1.99999 1.03999,1.19999 1.59999,1.51999 2.31998,1.51999 0.88,0 3.91997,-1.51999 5.91996,-2.95998 0.71999,-0.56 1.35999,-0.8 1.75998,-0.64 1.12,0.32 2.63999,1.75999 3.99998,3.83997 1.51998,2.31999 1.59998,2.07999 -1.35999,5.99996 -2.39999,3.19998 -5.03997,7.59994 -6.31996,10.63992 -1.19999,2.87998 -2.71998,8.95993 -3.19997,12.63991 -0.4,3.51997 -1.04,15.59988 -0.8,15.99988 0.16,0.16 0.48,0.24 0.72,0.24 0.31999,0 1.03999,0.31999 1.59998,0.63999 1.2,0.72 1.75999,2.63998 1.35999,4.39997 -0.31999,1.35999 -1.91998,2.95998 -2.95997,2.95998 -0.88,0 -1.19999,1.35999 -1.19999,4.63996 0,3.91997 0.08,3.99997 1.91998,3.99997 2.71998,0 6.07996,1.19999 7.75994,2.87998 1.04,0.95999 1.12,1.27999 0.4,2.47998 -0.32,0.56 -0.48,1.2 -0.4,1.43999 0.08,0.24 1.91999,1.11999 3.99997,1.99999 4.23997,1.67999 6.07995,2.79998 6.87995,4.23997 0.71999,1.27999 0.4,2.23998 -1.19999,3.59997 -2.23999,1.83999 -9.27993,4.31997 -14.71989,5.11996 -1.19999,0.24 -3.51997,0.56 -5.11996,0.8 -1.59999,0.31999 -3.27998,0.47999 -3.91997,0.47999 -0.56,0 -1.11999,0.24 -1.19999,0.4 -0.4,0.56 -0.24,22.71983 0.16,30.79977 0.63999,11.67992 1.99998,23.99982 3.83997,32.95976 1.83998,9.27993 5.27996,21.35983 7.03994,24.79983 0.8,1.52 3.03998,3.76 5.99996,5.9999 1.27999,0.96 2.47998,2 2.63998,2.32 0.48,0.88 0.4,4.4 -0.08,6.32 -0.71999,2.64 -0.95999,4.7999 -0.71999,6.6399 0.15999,1.52 0.55999,2.16 2.55997,4.88 1.27999,1.76 3.11998,4 3.99997,5.04 0.88,1.1199 2.15999,2.7199 2.87998,3.5999 0.72,0.96 2.39998,2.96 3.83997,4.56 1.35999,1.6 3.35998,3.84 4.31997,5.04 0.95999,1.2 2.47998,3.0399 3.43998,4.0799 1.83998,2.16 3.11997,4.72 3.11997,6 0,1.36 -0.63999,2.8 -2.31998,4.7999 -1.99998,2.4 -1.99998,3.2 0,4.32 2.79998,1.68 2.63998,1.2 2.63998,8.8 0,7.7599 -0.16,8.3999 -2.15998,8.7199 -1.35999,0.24 -116.87913,0.16 -118.15912,-0.08 z"
         id="path166" />
    </g>
  </g>
</svg>
